<svg width="112" height="34" viewBox="0 0 112 34" fill="none" xmlns="http://www.w3.org/2000/svg">
<path d="M32.2326 24.1041C32.0563 23.69 31.8911 23.2547 31.7149 22.883L30.8997 21.1098L30.8666 21.078C28.4432 15.9814 25.8545 10.7999 23.1116 5.70331L23.0015 5.49096C22.7261 4.99192 22.4507 4.43979 22.1643 3.93013C21.8118 3.32491 21.4703 2.67722 20.9085 2.06138C20.3609 1.41702 19.6717 0.897865 18.8907 0.541388C18.1096 0.184911 17.2562 0 16.3921 0C15.5279 0 14.6745 0.184911 13.8935 0.541388C13.1125 0.897865 12.4233 1.41702 11.8757 2.06138C11.3579 2.67722 10.9724 3.32491 10.6199 3.93013C10.3445 4.48226 10.0691 5.02377 9.78268 5.52281L9.67253 5.73517C6.97369 10.8317 4.34095 16.0133 1.91751 21.1098L1.85141 21.1735C1.60907 21.7257 1.32266 22.299 1.04727 22.9149C0.87102 23.2865 0.694769 23.69 0.518519 24.1359C0.0426786 25.3037 -0.109272 26.5708 0.0776418 27.8124C0.264556 29.0539 0.783883 30.2272 1.58444 31.2164C2.385 32.2056 3.43916 32.9767 4.64303 33.4536C5.84689 33.9305 7.15892 34.0969 8.44979 33.9362C9.68736 33.7792 10.879 33.3819 11.9528 32.7683C13.3848 31.9932 14.7618 30.8677 16.3039 29.2431C17.8461 30.8677 19.2561 31.9932 20.6551 32.7789C22.0005 33.54 23.524 33.9601 25.0834 33.9999C26.8893 34.0072 28.6369 33.3844 30.0035 32.2466C31.3702 31.1088 32.2637 29.5329 32.519 27.8097C32.814 26.5714 32.7142 25.2761 32.2326 24.0935V24.1041ZM16.4141 25.8666C14.5194 23.5307 13.2857 21.3859 12.8671 19.549C12.6936 18.8683 12.6563 18.1621 12.7569 17.4679C12.834 16.9264 13.0433 16.4486 13.3297 16.0451C13.9907 15.1214 15.1473 14.548 16.4141 14.548C17.0157 14.5303 17.6125 14.6568 18.1508 14.9163C18.6891 15.1757 19.1522 15.56 19.4985 16.0345C19.7849 16.4592 19.9942 16.9264 20.0603 17.4679C20.1704 18.0837 20.1264 18.7951 19.9501 19.549C19.5315 21.3541 18.2978 23.5201 16.4141 25.8666ZM30.4481 27.4381C30.3229 28.3129 29.9621 29.1409 29.4016 29.8395C28.8411 30.5381 28.1005 31.083 27.2535 31.4198C26.4163 31.7596 25.491 31.8551 24.5877 31.7596C23.7065 31.6534 22.8252 31.3773 21.9219 30.8677C20.4222 29.9742 19.0736 28.8641 17.9233 27.5761C20.2365 24.8155 21.6355 22.299 22.1643 20.0587C22.4176 18.9969 22.4507 18.0413 22.3405 17.16C22.203 16.3247 21.8798 15.5279 21.3932 14.8241C20.8375 14.0609 20.0959 13.441 19.2335 13.0189C18.371 12.5968 17.4142 12.3853 16.4472 12.4032C14.4093 12.4032 12.5917 13.3163 11.4901 14.8134C10.9942 15.5155 10.6737 16.3186 10.5538 17.16C10.4106 18.0519 10.4436 19.0394 10.73 20.0587C11.2588 22.299 12.6908 24.8473 14.9711 27.5974C13.8403 28.9099 12.4885 30.0298 10.9724 30.9101C10.0581 31.4198 9.18784 31.6852 8.30659 31.7914C6.93611 31.9606 5.55173 31.6016 4.45437 30.7924C3.357 29.9832 2.63534 28.7892 2.44626 27.4699C2.3361 26.6205 2.41321 25.7711 2.76571 24.8155C2.87587 24.4757 3.0411 24.1359 3.21735 23.7325C3.4597 23.1803 3.74611 22.607 4.0215 22.0336L4.06556 21.9593C6.44494 16.8945 9.04463 11.7236 11.7435 6.65892L11.8536 6.44656C12.129 5.93691 12.4044 5.3954 12.6908 4.88574C12.9772 4.34423 13.2857 3.82395 13.6822 3.39924C14.0255 3.00427 14.4544 2.68664 14.9388 2.4687C15.4231 2.25077 15.9512 2.13782 16.4857 2.13782C17.0202 2.13782 17.5483 2.25077 18.0327 2.4687C18.517 2.68664 18.9459 3.00427 19.2892 3.39924C19.6747 3.82395 19.9942 4.34423 20.2806 4.88574C20.556 5.3954 20.8314 5.94753 21.1178 6.44656L21.2279 6.65892C23.9158 11.7236 26.5155 16.8945 28.9389 21.9593L28.972 21.9911C29.2584 22.5433 29.5007 23.1591 29.7761 23.69C29.9523 24.1041 30.1286 24.4332 30.2388 24.7836C30.4481 25.7392 30.5582 26.5887 30.4481 27.4381ZM45.7818 25.6331C44.9518 25.6448 44.1296 25.4762 43.3764 25.1398C42.6231 24.8034 41.9581 24.3079 41.4307 23.69C40.2454 22.3733 39.6164 20.6757 39.6682 18.9332C39.65 17.1528 40.2994 15.4259 41.4967 14.0702C42.0506 13.4444 42.7401 12.9432 43.5166 12.602C44.2931 12.2608 45.1378 12.0878 45.9911 12.0953C46.7941 12.0741 47.5895 12.2501 48.3025 12.6067C49.0154 12.9633 49.6226 13.4889 50.0669 14.1339L50.1771 12.4669H53.3937V25.2933H50.1661L50.0559 23.4245C49.5978 24.1133 48.9647 24.6777 48.2167 25.0643C47.4686 25.4508 46.6305 25.6466 45.7818 25.6331ZM46.619 22.5751C47.2579 22.5751 47.8197 22.4052 48.3485 22.0973C48.8332 21.7575 49.2297 21.3116 49.5382 20.7701C49.8136 20.2286 49.9568 19.5809 49.9568 18.8589C49.9997 18.2318 49.8731 17.6047 49.5892 17.0389C49.3054 16.4731 48.8741 15.988 48.3375 15.631C47.8219 15.3214 47.2265 15.1572 46.619 15.1572C46.0115 15.1572 45.4162 15.3214 44.9006 15.631C44.4159 15.9708 44.0193 16.4167 43.7109 16.9583C43.4196 17.5555 43.2763 18.2097 43.2923 18.8695C43.2494 19.4966 43.376 20.1237 43.6598 20.6895C43.9437 21.2552 44.375 21.7403 44.9116 22.0973C45.4293 22.4052 45.9911 22.5751 46.619 22.5751ZM58.9015 9.00547C58.9015 9.3771 58.8354 9.71687 58.6591 9.99293C58.4829 10.2584 58.2405 10.5026 57.9211 10.6725C57.6016 10.8424 57.2601 10.9061 56.9076 10.9061C56.5551 10.9061 56.2026 10.8424 55.8832 10.6725C55.5811 10.5104 55.327 10.2764 55.1451 9.99293C54.9745 9.69046 54.8909 9.34956 54.9028 9.00547C54.9028 8.62323 54.9799 8.28346 55.1451 8.01801C55.3214 7.69947 55.5748 7.50835 55.8832 7.33847C56.2026 7.16858 56.5441 7.09425 56.9076 7.09425C57.2583 7.08647 57.605 7.16651 57.914 7.32657C58.2229 7.48662 58.4834 7.72121 58.6702 8.00739C58.8305 8.31695 58.9099 8.65958 58.9015 9.00547ZM55.1562 25.2508V12.4457H58.6591V25.272H55.1451L55.1562 25.2508ZM68.0224 15.8009V15.8434C67.8572 15.7691 67.6369 15.7372 67.4717 15.7053C67.2514 15.6629 67.0751 15.6629 66.8658 15.6629C65.8854 15.6629 65.1474 15.9389 64.6627 16.5123C64.1339 17.0963 63.8916 17.9139 63.8916 18.965V25.2614H60.3776V12.435H63.6052L63.7153 14.3781C64.0678 13.6986 64.4864 13.1889 65.0813 12.8067C65.673 12.4353 66.3695 12.2498 67.0751 12.2758C67.3285 12.2758 67.5708 12.297 67.7801 12.3395C67.8903 12.3713 67.9564 12.3713 68.0224 12.4032V15.8009ZM69.4324 25.2508V7.1792H72.9354V14.0808C73.4311 13.465 73.9929 12.9872 74.6979 12.6155C75.814 12.0881 77.0819 11.9385 78.2971 12.1908C79.5122 12.4432 80.6037 13.0828 81.3955 14.0065C82.5833 15.3259 83.2125 17.0278 83.158 18.7739C83.1761 20.5543 82.5267 22.2812 81.3294 23.6369C80.7755 24.2627 80.086 24.7638 79.3095 25.1051C78.533 25.4463 77.6883 25.6193 76.835 25.6118C76.032 25.633 75.2366 25.457 74.5236 25.1004C73.8107 24.7438 73.2035 24.2182 72.7592 23.5732L72.649 25.2402L69.4324 25.272V25.2508ZM76.2071 22.5751C76.835 22.5751 77.3968 22.4052 77.9255 22.0973C78.4102 21.7575 78.8068 21.3116 79.1152 20.7701C79.4016 20.2286 79.5338 19.5809 79.5338 18.8589C79.5338 18.1475 79.4016 17.4998 79.1152 16.9583C78.8259 16.4361 78.4195 15.9827 77.9255 15.631C77.4099 15.3214 76.8146 15.1572 76.2071 15.1572C75.5996 15.1572 75.0042 15.3214 74.4886 15.631C73.9929 15.9708 73.6074 16.4167 73.2879 16.9583C72.9966 17.5555 72.8533 18.2097 72.8693 18.8695C72.8264 19.4966 72.953 20.1237 73.2369 20.6895C73.5207 21.2552 73.952 21.7403 74.4886 22.0973C75.0064 22.4052 75.5682 22.5751 76.2071 22.5751ZM84.4798 25.2614V12.435H87.7074L87.8176 14.102C88.2232 13.463 88.7985 12.9401 89.4841 12.5873C90.1697 12.2345 90.9406 12.0646 91.7171 12.0953C92.6051 12.0805 93.4779 12.3184 94.2263 12.7792C94.9748 13.24 95.5657 13.9032 95.9251 14.686C96.3106 15.493 96.5199 16.4911 96.5199 17.6059V25.2933H93.006V18.0519C93.006 17.16 92.7966 16.4592 92.3781 15.9389C91.9595 15.4293 91.3867 15.1532 90.6596 15.1532C90.1309 15.1532 89.6682 15.2594 89.2606 15.493C88.8751 15.7372 88.5556 16.0451 88.3133 16.4805C88.0683 16.9205 87.9467 17.4146 87.9608 17.9139V25.2614H84.4798ZM98.2714 25.2614V7.16858H101.785V14.0702C102.261 13.4509 102.881 12.9471 103.594 12.5988C104.307 12.2504 105.095 12.0671 105.894 12.0634C106.724 12.0517 107.546 12.2203 108.3 12.5567C109.053 12.893 109.718 13.3886 110.245 14.0065C111.425 15.3258 112.05 17.0225 111.997 18.7633C112.016 20.5439 111.367 22.271 110.168 23.6263C109.614 24.2521 108.925 24.7532 108.148 25.0944C107.372 25.4357 106.527 25.6086 105.674 25.6012C104.871 25.6224 104.076 25.4464 103.363 25.0898C102.65 24.7331 102.042 24.2076 101.598 23.5626L101.499 25.2296L98.2714 25.2614ZM105.079 22.5751C105.718 22.5751 106.28 22.4052 106.798 22.0973C107.293 21.7575 107.679 21.3116 107.998 20.7701C108.274 20.2286 108.417 19.5809 108.417 18.8589C108.46 18.2318 108.333 17.6047 108.049 17.0389C107.765 16.4731 107.334 15.988 106.798 15.631C106.282 15.3214 105.687 15.1572 105.079 15.1572C104.472 15.1572 103.876 15.3214 103.361 15.631C102.876 15.9708 102.479 16.4167 102.171 16.9583C101.864 17.5501 101.719 18.2083 101.752 18.8695C101.709 19.4966 101.836 20.1237 102.12 20.6895C102.404 21.2552 102.835 21.7403 103.372 22.0973C103.889 22.4052 104.418 22.5751 105.079 22.5751Z" fill="#FF385C"/>
</svg>
