<svg width="151" height="137" viewBox="0 0 151 137" fill="none" xmlns="http://www.w3.org/2000/svg">
<g clip-path="url(#clip0)">
<path d="M46.2023 27.5057C47.0083 28.4479 47.5457 29.4015 47.7794 30.3781C48.0247 31.3547 48.0013 32.2738 47.7209 33.147C47.4406 34.0202 46.9149 34.7785 46.1322 35.4219C45.3612 36.0654 44.5084 36.456 43.5856 36.5824C42.6627 36.7088 41.7281 36.5824 40.7936 36.1802C39.859 35.7781 38.9829 35.1117 38.1768 34.1696C37.3708 33.2275 36.8334 32.2738 36.5998 31.2972C36.3545 30.3206 36.3778 29.4015 36.6582 28.5283C36.9386 27.6551 37.4642 26.8968 38.2469 26.2534C39.0179 25.61 39.8707 25.2193 40.7936 25.0929C41.7165 24.9666 42.651 25.0929 43.5856 25.4951C44.5201 25.8972 45.3962 26.5636 46.2023 27.5057ZM45.1392 28.3904C44.4734 27.6206 43.7841 27.0691 43.0599 26.7589C42.3356 26.4487 41.6464 26.3338 40.9571 26.4372C40.2796 26.5291 39.6604 26.8164 39.1114 27.2644C38.5623 27.724 38.1768 28.2755 37.9666 28.9189C37.7563 29.5623 37.7446 30.2632 37.9432 31.01C38.1418 31.7568 38.574 32.5266 39.2399 33.2964C39.9058 34.0662 40.595 34.6177 41.3193 34.9279C42.0435 35.2381 42.7328 35.353 43.422 35.2496C44.0996 35.1577 44.7187 34.8705 45.2677 34.4224C45.8168 33.9628 46.2023 33.4113 46.4126 32.7679C46.6228 32.1245 46.6345 31.4236 46.4359 30.6768C46.2373 29.93 45.8051 29.1602 45.1392 28.3904Z" fill="black"/>
<path d="M55.5478 16.3726L56.8678 15.8096L60.0219 22.91C60.349 23.6454 60.4658 24.3692 60.3724 25.093C60.2789 25.8169 59.9869 26.4833 59.4962 27.0807C59.0056 27.6782 58.3397 28.1722 57.4753 28.5399C56.6225 28.9075 55.8048 29.0569 55.0221 28.9994C54.2394 28.942 53.5502 28.7007 52.9427 28.2756C52.3352 27.8505 51.868 27.276 51.5525 26.5407L48.3984 19.4402L49.7185 18.8772L52.8259 25.8743C53.0595 26.4028 53.3866 26.8164 53.7955 27.1152C54.2043 27.4139 54.6833 27.5977 55.2207 27.6437C55.758 27.6896 56.3304 27.5862 56.9379 27.322C57.5454 27.0577 58.0126 26.7245 58.3514 26.2994C58.6902 25.8743 58.8771 25.4147 58.9238 24.9092C58.9706 24.4037 58.8888 23.8866 58.6551 23.3696L55.5478 16.3726Z" fill="black"/>
<path d="M65.6179 25.5294L63.9707 13.9481L67.9542 13.3966C68.8771 13.2702 69.6481 13.3162 70.2906 13.546C70.9214 13.7757 71.4237 14.1319 71.7859 14.626C72.148 15.12 72.37 15.7175 72.4751 16.3953C72.5686 17.0732 72.5218 17.7051 72.3116 18.2681C72.1013 18.8311 71.7275 19.3136 71.1784 19.6928C70.6294 20.0719 69.9051 20.3247 68.9939 20.4511L65.7697 20.8992L65.5945 19.6354L68.772 19.1988C69.4028 19.1068 69.8934 18.9575 70.2556 18.7162C70.6177 18.4864 70.863 18.1877 70.9798 17.8315C71.1083 17.4753 71.1317 17.0617 71.0733 16.6021C71.0032 16.1426 70.863 15.7404 70.6411 15.4187C70.4191 15.097 70.092 14.8672 69.6831 14.7294C69.2743 14.5915 68.7486 14.5685 68.1061 14.6604L65.5945 15.0051L67.0664 25.3456L65.6179 25.5294ZM70.4191 19.5664L74.0639 24.369L72.405 24.5988L68.807 19.7847L70.4191 19.5664Z" fill="black"/>
<path d="M86.7851 13.6265L88.4323 14.109L89.4836 24.5529L89.6121 24.5874L96.3058 16.4184L97.953 16.901L94.5536 28.1146L93.2569 27.7355L95.8386 19.2218L95.7217 19.1873L89.6005 26.667L88.3505 26.2993L87.3692 16.7401L87.2524 16.7056L84.6707 25.2193L83.374 24.8401L86.7851 13.6265Z" fill="black"/>
<path d="M105.383 20.8764L99.4248 30.9986L98.1748 30.2863L104.133 20.1641L105.383 20.8764Z" fill="black"/>
<path d="M113.864 30.8147C114.202 30.3321 114.284 29.8151 114.121 29.2521C113.957 28.6892 113.607 28.1836 113.069 27.7126C112.672 27.3679 112.275 27.1381 111.866 27.0117C111.457 26.8853 111.072 26.8623 110.709 26.9428C110.347 27.0232 110.044 27.207 109.798 27.4828C109.588 27.724 109.471 27.9653 109.436 28.2411C109.401 28.5053 109.424 28.7696 109.506 29.0453C109.588 29.3096 109.705 29.5623 109.833 29.8036C109.973 30.0449 110.102 30.2517 110.23 30.447L110.931 31.4696C111.107 31.7339 111.294 32.0326 111.492 32.3887C111.691 32.7449 111.831 33.1241 111.936 33.5262C112.041 33.9398 112.053 34.3534 111.971 34.79C111.889 35.2266 111.667 35.6403 111.305 36.0539C110.885 36.5364 110.371 36.8581 109.787 37.019C109.191 37.1913 108.56 37.1798 107.871 36.996C107.182 36.8122 106.504 36.4215 105.815 35.8356C105.172 35.2841 104.705 34.7096 104.413 34.1007C104.121 33.4917 104.004 32.8943 104.062 32.3083C104.121 31.7109 104.343 31.1594 104.728 30.6538L105.85 31.619C105.581 31.9751 105.453 32.3543 105.464 32.7334C105.476 33.1241 105.581 33.5032 105.803 33.8709C106.013 34.2385 106.305 34.5717 106.656 34.882C107.076 35.2381 107.497 35.4909 107.953 35.6403C108.396 35.7896 108.829 35.8241 109.238 35.7552C109.646 35.6747 109.985 35.4794 110.277 35.1577C110.534 34.859 110.663 34.5603 110.663 34.2271C110.663 33.9054 110.569 33.5607 110.406 33.216C110.23 32.8713 110.032 32.5151 109.787 32.159L108.957 30.9066C108.431 30.1138 108.128 29.3555 108.046 28.6317C107.964 27.9194 108.186 27.253 108.712 26.667C109.144 26.173 109.67 25.8628 110.266 25.7249C110.861 25.587 111.492 25.6215 112.135 25.8053C112.777 26.0006 113.385 26.3338 113.957 26.8279C114.541 27.3219 114.962 27.8619 115.23 28.4479C115.499 29.0338 115.616 29.6198 115.569 30.1943C115.522 30.7687 115.312 31.2858 114.927 31.7453L113.864 30.8147Z" fill="black"/>
<path d="M122.602 41.454C123.046 41.0749 123.268 40.5808 123.256 40.0064C123.244 39.4204 123.034 38.8459 122.625 38.26C122.322 37.8349 121.995 37.5132 121.632 37.2834C121.27 37.0651 120.908 36.9387 120.534 36.9272C120.16 36.9157 119.822 37.0191 119.506 37.2259C119.249 37.3983 119.062 37.6166 118.969 37.8693C118.864 38.1221 118.829 38.3864 118.84 38.6621C118.852 38.9379 118.899 39.2136 118.969 39.4779C119.039 39.7421 119.109 39.9834 119.191 40.1902L119.611 41.3506C119.717 41.6494 119.822 41.994 119.927 42.3732C120.02 42.7638 120.067 43.166 120.067 43.5911C120.067 44.0162 119.974 44.4183 119.787 44.8204C119.6 45.2226 119.273 45.5787 118.817 45.889C118.291 46.2451 117.719 46.4405 117.1 46.4519C116.481 46.4749 115.862 46.3026 115.254 45.9579C114.635 45.6132 114.074 45.0617 113.56 44.3264C113.081 43.637 112.778 42.9592 112.649 42.3043C112.521 41.6494 112.567 41.0404 112.766 40.4774C112.964 39.9145 113.327 39.4319 113.841 39.0413L114.682 40.2477C114.331 40.5349 114.109 40.8566 114.027 41.2357C113.934 41.6149 113.946 42.0055 114.063 42.4192C114.179 42.8328 114.366 43.2234 114.635 43.6026C114.95 44.0507 115.301 44.3953 115.698 44.6481C116.095 44.9009 116.492 45.0387 116.913 45.0732C117.322 45.0962 117.707 44.9928 118.069 44.7515C118.397 44.5332 118.595 44.2575 118.677 43.9472C118.759 43.6255 118.759 43.2809 118.677 42.9017C118.595 42.5226 118.49 42.1319 118.35 41.7298L117.871 40.3051C117.567 39.3974 117.462 38.5932 117.567 37.8808C117.672 37.1685 118.046 36.5825 118.712 36.1344C119.261 35.7668 119.845 35.5829 120.453 35.6059C121.072 35.6174 121.667 35.8012 122.24 36.1459C122.812 36.4906 123.315 36.9732 123.747 37.5821C124.179 38.2025 124.459 38.8345 124.565 39.4664C124.681 40.0983 124.635 40.6957 124.448 41.2357C124.261 41.7872 123.922 42.2353 123.431 42.58L122.602 41.454Z" fill="black"/>
<path d="M129.167 47.7387L118.268 52.4264L117.695 51.1281L128.595 46.4404L129.167 47.7387Z" fill="black"/>
<path d="M127.777 64.8001C126.551 65.0414 125.441 65.0414 124.46 64.7772C123.478 64.5129 122.661 64.0533 122.018 63.3869C121.375 62.7206 120.955 61.9048 120.756 60.9167C120.558 59.9401 120.616 59.021 120.955 58.1593C121.282 57.2975 121.854 56.5622 122.661 55.9533C123.467 55.3443 124.483 54.9077 125.709 54.6665C126.936 54.4252 128.046 54.4252 129.027 54.6894C130.008 54.9537 130.826 55.4133 131.469 56.0797C132.111 56.7461 132.532 57.5618 132.73 58.5499C132.929 59.5265 132.87 60.4456 132.532 61.3074C132.205 62.1691 131.632 62.9044 130.826 63.5133C130.02 64.1223 129.004 64.5589 127.777 64.8001ZM127.497 63.4559C128.501 63.2606 129.319 62.9159 129.95 62.4563C130.581 61.9852 131.013 61.4337 131.247 60.8018C131.492 60.1699 131.539 59.5035 131.399 58.8142C131.258 58.1248 130.943 57.5273 130.476 57.0333C130.008 56.5392 129.389 56.2061 128.63 56.0107C127.871 55.8154 126.983 55.8269 125.966 56.0222C124.95 56.2175 124.144 56.5622 123.513 57.0218C122.882 57.4814 122.45 58.0444 122.217 58.6763C121.971 59.3082 121.925 59.9746 122.065 60.6639C122.205 61.3533 122.509 61.9508 122.988 62.4448C123.455 62.9389 124.074 63.2721 124.845 63.4674C125.604 63.6627 126.492 63.6512 127.497 63.4559Z" fill="black"/>
<path d="M132.987 79.8398L121.142 78.7368L121.27 77.3695L131.176 71.8891L131.188 71.7742L121.889 70.901L122.029 69.4878L133.875 70.5908L133.746 71.958L123.805 77.45L123.793 77.5648L133.116 78.438L132.987 79.8398Z" fill="black"/>
<path d="M108.595 109.827C107.719 108.954 107.112 108.035 106.796 107.082C106.481 106.128 106.423 105.209 106.633 104.313C106.843 103.416 107.31 102.624 108.035 101.923C108.759 101.222 109.577 100.774 110.488 100.567C111.399 100.372 112.334 100.429 113.303 100.762C114.273 101.084 115.196 101.693 116.072 102.566C116.948 103.439 117.555 104.358 117.871 105.312C118.186 106.266 118.245 107.185 118.034 108.081C117.824 108.977 117.357 109.77 116.633 110.471C115.908 111.172 115.091 111.62 114.179 111.827C113.268 112.022 112.334 111.965 111.364 111.631C110.394 111.31 109.472 110.712 108.595 109.827ZM109.588 108.862C110.313 109.586 111.049 110.069 111.785 110.333C112.521 110.597 113.233 110.643 113.899 110.494C114.565 110.345 115.161 110.023 115.675 109.529C116.189 109.035 116.527 108.449 116.679 107.794C116.843 107.139 116.796 106.438 116.539 105.714C116.282 104.979 115.792 104.255 115.067 103.531C114.343 102.807 113.607 102.325 112.871 102.061C112.135 101.796 111.422 101.75 110.757 101.9C110.091 102.049 109.495 102.371 108.981 102.865C108.467 103.359 108.128 103.945 107.976 104.6C107.813 105.255 107.86 105.956 108.117 106.679C108.374 107.415 108.864 108.15 109.588 108.862Z" fill="black"/>
<path d="M100.138 121.639L98.8643 122.305L95.1612 115.469C94.7757 114.768 94.6122 114.044 94.6472 113.32C94.6822 112.596 94.9276 111.907 95.3598 111.275C95.8037 110.632 96.4345 110.103 97.2522 109.667C98.0817 109.23 98.876 109.023 99.6587 109.012C100.441 109.012 101.154 109.196 101.785 109.575C102.416 109.954 102.93 110.494 103.315 111.195L107.018 118.031L105.745 118.697L102.1 111.965C101.832 111.459 101.469 111.068 101.037 110.793C100.605 110.517 100.114 110.379 99.5769 110.379C99.0396 110.379 98.4788 110.528 97.8947 110.827C97.3107 111.137 96.8667 111.505 96.563 111.953C96.2593 112.401 96.1074 112.872 96.0957 113.378C96.0841 113.883 96.2126 114.389 96.4812 114.894L100.138 121.639Z" fill="black"/>
<path d="M85.0684 119.594L81.0615 115.078L82.697 114.722L86.6571 119.249L85.0684 119.594ZM89.3907 113.274L91.949 124.695L88.0239 125.545C87.1127 125.74 86.3417 125.752 85.6875 125.58C85.0333 125.407 84.5077 125.086 84.1105 124.614C83.7133 124.143 83.4329 123.58 83.2811 122.903C83.1292 122.225 83.1409 121.604 83.3044 121.018C83.468 120.432 83.8068 119.938 84.3208 119.513C84.8348 119.088 85.5357 118.789 86.4352 118.594L89.6126 117.905L89.893 119.157L86.7623 119.835C86.1431 119.973 85.6642 120.168 85.3254 120.432C84.9866 120.697 84.7647 121.007 84.6712 121.374C84.5778 121.742 84.5778 122.156 84.6829 122.615C84.788 123.075 84.9633 123.454 85.2086 123.753C85.4539 124.051 85.7927 124.258 86.2249 124.362C86.6454 124.465 87.1711 124.454 87.8019 124.316L90.2785 123.776L87.9889 113.585L89.3907 113.274Z" fill="black"/>
<path d="M69.2267 126.74L67.5445 126.384L65.6754 116.055L65.5352 116.02L59.5074 124.672L57.8252 124.316L60.3251 112.884L61.6452 113.16L59.741 121.846L59.8578 121.869L65.395 113.952L66.6684 114.217L68.3973 123.672L68.5141 123.695L70.4183 115.009L71.7383 115.285L69.2267 126.74Z" fill="black"/>
<path d="M50.1162 120.949L55.2445 110.402L56.5412 111.011L51.4129 121.558L50.1162 120.949Z" fill="black"/>
<path d="M40.8639 111.689C40.5719 112.194 40.5252 112.723 40.7238 113.263C40.9224 113.803 41.3195 114.297 41.892 114.722C42.3125 115.032 42.733 115.227 43.1536 115.331C43.5741 115.423 43.9596 115.423 44.3101 115.319C44.6606 115.216 44.9526 115.009 45.1746 114.71C45.3615 114.458 45.4666 114.205 45.4783 113.929C45.49 113.665 45.4433 113.401 45.3381 113.136C45.233 112.884 45.1045 112.631 44.9526 112.401C44.8007 112.171 44.6489 111.964 44.5087 111.792L43.7377 110.827C43.5391 110.586 43.3288 110.287 43.1069 109.954C42.8849 109.621 42.7097 109.253 42.5695 108.851C42.4293 108.449 42.3943 108.035 42.4293 107.598C42.476 107.162 42.663 106.725 42.9901 106.289C43.3756 105.783 43.8545 105.415 44.4269 105.209C45.011 104.99 45.6418 104.956 46.3428 105.094C47.0437 105.232 47.7563 105.565 48.4922 106.093C49.1815 106.587 49.6838 107.127 50.0226 107.713C50.3613 108.299 50.5249 108.885 50.5132 109.483C50.5015 110.08 50.3263 110.643 49.9758 111.183L48.7843 110.31C49.0179 109.931 49.1231 109.552 49.0763 109.161C49.0413 108.77 48.9011 108.403 48.6558 108.058C48.4105 107.702 48.095 107.392 47.7212 107.116C47.2773 106.794 46.8334 106.576 46.3661 106.461C45.9105 106.346 45.4783 106.346 45.0811 106.449C44.6839 106.553 44.3568 106.783 44.0998 107.127C43.8662 107.438 43.7611 107.759 43.7961 108.081C43.8311 108.403 43.9363 108.736 44.1349 109.069C44.3335 109.402 44.5671 109.735 44.8358 110.08L45.7587 111.264C46.3428 112.022 46.7049 112.757 46.8451 113.458C46.9853 114.17 46.8217 114.837 46.3428 115.469C45.9456 115.997 45.4549 116.353 44.8708 116.526C44.2867 116.71 43.6559 116.721 43.0017 116.583C42.3475 116.445 41.705 116.147 41.0976 115.71C40.4784 115.262 40.0112 114.756 39.6958 114.193C39.3803 113.63 39.2168 113.056 39.2168 112.481C39.2168 111.907 39.392 111.367 39.7308 110.884L40.8639 111.689Z" fill="black"/>
<path d="M31.3192 101.727C30.9103 102.141 30.7234 102.646 30.7818 103.221C30.8402 103.795 31.0972 104.37 31.5528 104.921C31.8799 105.323 32.2421 105.622 32.6159 105.818C32.9897 106.013 33.3752 106.105 33.7374 106.082C34.1112 106.07 34.4383 105.944 34.7303 105.703C34.9756 105.507 35.1392 105.278 35.221 105.025C35.3027 104.772 35.3261 104.496 35.291 104.22C35.256 103.945 35.1976 103.68 35.1041 103.416C35.0107 103.152 34.9172 102.922 34.8238 102.715L34.3214 101.589C34.1929 101.302 34.0644 100.969 33.9359 100.59C33.8074 100.211 33.7257 99.8085 33.7023 99.3949C33.6789 98.9698 33.7374 98.5562 33.8892 98.1426C34.0411 97.7289 34.3331 97.3498 34.777 97.0051C35.2794 96.603 35.8284 96.3732 36.4475 96.3157C37.0667 96.2468 37.6858 96.3732 38.3283 96.6719C38.9708 96.9706 39.5783 97.4762 40.1507 98.177C40.6881 98.8319 41.0385 99.4753 41.2138 100.119C41.389 100.762 41.4007 101.371 41.2371 101.946C41.0736 102.52 40.7582 103.026 40.2792 103.462L39.3447 102.325C39.6717 102.015 39.8587 101.67 39.9287 101.291C39.9872 100.912 39.9521 100.521 39.8002 100.119C39.6484 99.7166 39.4264 99.3375 39.1344 98.9813C38.7839 98.5562 38.4101 98.2345 37.9896 98.0162C37.569 97.7979 37.1601 97.683 36.7513 97.683C36.3424 97.683 35.9686 97.8209 35.6298 98.0966C35.3261 98.3379 35.1392 98.6251 35.0924 98.9468C35.034 99.2685 35.0691 99.6132 35.1742 99.9809C35.2794 100.349 35.4195 100.739 35.5948 101.13L36.1905 102.509C36.5644 103.382 36.7279 104.186 36.6929 104.91C36.6461 105.634 36.319 106.243 35.6882 106.737C35.1742 107.15 34.6018 107.369 33.9944 107.403C33.3752 107.438 32.7678 107.3 32.172 107.001C31.5762 106.702 31.0272 106.266 30.5599 105.68C30.0809 105.094 29.7538 104.485 29.5903 103.864C29.4267 103.244 29.4151 102.646 29.5669 102.083C29.7188 101.52 30.0108 101.049 30.4664 100.67L31.3192 101.727Z" fill="black"/>
<path d="M24.2871 95.9715L34.7891 90.4795L35.4667 91.7319L24.9647 97.2238L24.2871 95.9715Z" fill="black"/>
<path d="M24.334 78.8516C25.5373 78.5184 26.6471 78.438 27.6517 78.6218C28.6563 78.8056 29.4974 79.2078 30.1984 79.8167C30.8876 80.4256 31.3782 81.2184 31.6586 82.172C31.939 83.1372 31.939 84.0563 31.682 84.9295C31.425 85.8142 30.9109 86.584 30.1633 87.2619C29.404 87.9398 28.4227 88.4453 27.2195 88.7785C26.0162 89.1117 24.9065 89.1921 23.9018 89.0083C22.8972 88.8244 22.0561 88.4223 21.3552 87.8134C20.6659 87.2044 20.1753 86.4117 19.8949 85.458C19.6146 84.4929 19.6146 83.5738 19.8716 82.7006C20.1286 81.8159 20.6426 81.0461 21.3902 80.3682C22.1379 79.7018 23.1191 79.1963 24.334 78.8516ZM24.7079 80.1729C23.7149 80.4486 22.9322 80.8507 22.3364 81.3563C21.7407 81.8618 21.3552 82.4478 21.1683 83.1027C20.9813 83.7576 20.9813 84.4125 21.1799 85.1019C21.3785 85.7797 21.729 86.3542 22.243 86.8023C22.757 87.2504 23.3995 87.5491 24.1705 87.687C24.9415 87.8249 25.8293 87.7444 26.8223 87.4687C27.8152 87.1929 28.5979 86.7908 29.1937 86.2853C29.7778 85.7682 30.175 85.1938 30.3619 84.5389C30.5488 83.884 30.5488 83.2291 30.3502 82.5397C30.1516 81.8618 29.8012 81.2873 29.2872 80.8393C28.7732 80.3912 28.1307 80.0924 27.3597 79.9546C26.5886 79.8282 25.7008 79.8971 24.7079 80.1729Z" fill="black"/>
<path d="M17.9438 64.249L29.836 64.4558L29.8126 65.8231L20.362 72.0274V72.1423L29.6958 72.3031L29.6724 73.7163L17.7803 73.5095L17.8036 72.1423L27.2776 65.915V65.8001L17.9205 65.6392L17.9438 64.249Z" fill="black"/>
<path d="M75.7799 110.747C98.7416 110.747 117.356 92.4391 117.356 69.8557C117.356 47.2723 98.7416 28.9648 75.7799 28.9648C52.8182 28.9648 34.2041 47.2723 34.2041 69.8557C34.2041 92.4391 52.8182 110.747 75.7799 110.747Z" stroke="black" stroke-miterlimit="10"/>
<path d="M75.7802 76.8873C79.7286 76.8873 82.9295 73.7392 82.9295 69.8558C82.9295 65.9724 79.7286 62.8242 75.7802 62.8242C71.8317 62.8242 68.6309 65.9724 68.6309 69.8558C68.6309 73.7392 71.8317 76.8873 75.7802 76.8873Z" fill="black"/>
<path d="M75.7808 132.392C110.898 132.392 139.365 104.394 139.365 69.8553C139.365 35.3171 110.898 7.31836 75.7808 7.31836C40.664 7.31836 12.1963 35.3171 12.1963 69.8553C12.1963 104.394 40.664 132.392 75.7808 132.392Z" stroke="black" stroke-miterlimit="10"/>
</g>
<defs>
<clipPath id="clip0">
<rect width="151" height="137" fill="white"/>
</clipPath>
</defs>
</svg>
