<svg width="338" height="151" viewBox="0 0 338 151" fill="none" xmlns="http://www.w3.org/2000/svg">
<path fill-rule="evenodd" clip-rule="evenodd" d="M16.7078 105.996L16.7266 106.005L16.7454 106.013C21.6978 108.088 27.9369 109.045 35.3139 109.045C44.5731 109.045 52.2525 107.222 58.0368 103.24L58.0485 103.232L58.0601 103.224C64.0222 99.0364 67 92.9947 67 85.4803C67 81.3804 65.9514 77.7427 63.6304 74.8088C61.5612 72.1041 58.8122 69.9701 55.4836 68.3669C52.3644 66.7605 48.9299 65.4752 45.1941 64.4982C41.6418 63.4801 38.0529 62.5709 34.4277 61.7706C30.9378 61.0001 27.7507 60.1642 24.8624 59.2652C22.2149 58.3502 20.1973 57.2898 18.7197 56.14C17.6811 55.2271 17.1825 54.1385 17.1825 52.641C17.1825 51.7996 17.3302 50.8425 17.6726 49.7551C17.993 48.9339 18.5942 48.038 19.6182 47.087L19.6216 47.0839C20.5705 46.1998 22.0863 45.34 24.3749 44.6326C26.5335 43.9655 29.5243 43.582 33.4526 43.582C39.8141 43.582 43.9424 44.8026 46.3852 46.7134L46.4018 46.7264L46.4185 46.7391C49.067 48.7516 50.4021 51.0704 50.7301 53.7581L51.0519 56.3947H65.3273L65.1331 53.212C64.8801 49.0656 63.5253 45.2148 61.1227 41.7046C58.7033 38.0606 55.1165 35.2639 50.5757 33.2237C45.8964 31.0487 40.1407 30.0452 33.4526 30.0452C24.0699 30.0452 16.4587 31.931 11.1096 36.1892L11.1005 36.1965L11.0914 36.2039C5.86263 40.4335 3.18978 46.0277 3.18978 52.7487C3.18978 56.7766 4.20097 60.3638 6.43211 63.2892L6.46422 63.3313L6.4978 63.3723C8.62782 65.9696 11.3566 68.0533 14.6106 69.6533L14.6237 69.6597L14.6368 69.666C17.8129 71.1895 21.2387 72.4362 24.9067 73.4131L24.9141 73.4151L24.9215 73.417C28.5115 74.3536 32.0653 75.2544 35.5831 76.1192L35.6113 76.1261L35.6397 76.1325C39.053 76.9017 42.1572 77.7704 44.958 78.7344L44.9686 78.738L44.9793 78.7416C47.7072 79.6576 49.6806 80.7744 51.0424 82.0021L51.0906 82.0455L51.1405 82.0867C52.2283 82.9852 52.7883 84.1229 52.7883 85.8033C52.7883 88.9034 51.5601 91.0852 48.8948 92.6967C45.9462 94.4063 41.6873 95.4006 35.8613 95.4006C31.9452 95.4006 28.3982 94.9281 25.2005 94.0119C22.1631 93.1211 19.8616 91.8034 18.1658 90.1426C16.6369 88.5787 15.7136 86.4998 15.5341 83.6749L15.3555 80.8652H0.730347L1.01108 84.1228C1.41582 88.8194 2.84267 93.1015 5.31573 96.9115L5.32804 96.9305L5.34064 96.9493C7.98055 100.885 11.8335 103.875 16.7078 105.996Z" fill="#0068E5"/>
<path d="M73.3187 77.2133L73.3164 77.2025L73.3141 77.1918C72.2274 72.2727 72.2283 67.2889 73.1774 62.6479L73.1782 62.6438C73.21 62.4862 73.242 62.3431 73.2777 62.1836L73.2789 62.1784C73.3137 62.0232 73.352 61.852 73.3906 61.6606L73.4092 61.5681C73.4317 61.4922 73.4598 61.3803 73.4765 61.2448C76.7067 47.1015 87.9271 35.4569 103.085 32.2863C116.076 29.6185 129.511 33.8468 138.64 43.3413L130.423 50.5014C125.378 45.3632 118.348 42.3087 110.92 42.3087C97.885 42.3087 86.95 51.522 84.3267 63.7172L84.2931 63.8732V64.0195C83.5756 67.5342 83.5131 71.2647 84.2508 74.9973L84.2508 74.9973L84.2531 75.0087C87.2543 89.5985 101.719 98.9491 116.315 95.9791C124.411 94.3426 131.153 89.1366 134.897 82.0061C135.479 80.9047 135.99 79.7579 136.401 78.5911L147.103 81.6879C142.746 94.4734 131.951 103.998 118.545 106.803C97.8958 110.993 77.5373 97.7349 73.3187 77.2133Z" fill="#0068E5" stroke="#0068E5" stroke-width="3"/>
<mask id="path-3-inside-1" fill="white">
<path d="M130.243 52.6567L130.102 52.7971C124.015 45.9154 114.601 42.8256 105.612 44.6513C95.4193 46.758 87.8458 54.6229 85.7224 64.1029C88.1289 52.5865 98.4628 43.8789 110.849 43.8789C118.352 43.8789 125.43 47.1091 130.243 52.6567Z"/>
</mask>
<path d="M130.243 52.6567L130.102 52.7971C124.015 45.9154 114.601 42.8256 105.612 44.6513C95.4193 46.758 87.8458 54.6229 85.7224 64.1029C88.1289 52.5865 98.4628 43.8789 110.849 43.8789C118.352 43.8789 125.43 47.1091 130.243 52.6567Z" fill="#0068E5"/>
<path d="M130.243 52.6567L132.356 54.7864L134.348 52.8101L132.509 50.6907L130.243 52.6567ZM130.102 52.7971L127.855 54.7847L129.959 57.1643L132.215 54.9268L130.102 52.7971ZM105.612 44.6513L105.015 41.7114L105.004 41.7134L105.612 44.6513ZM85.7224 64.1029L82.7858 63.4893L88.6498 64.7586L85.7224 64.1029ZM128.13 50.527L127.989 50.6674L132.215 54.9268L132.356 54.7864L128.13 50.527ZM132.349 50.8095C125.542 43.1144 115.04 39.6752 105.015 41.7114L106.209 47.5913C114.162 45.976 122.487 48.7163 127.855 54.7847L132.349 50.8095ZM105.004 41.7134C93.6314 44.0641 85.1702 52.8427 82.7949 63.4472L88.6498 64.7586C90.5214 56.4031 97.2072 49.4519 106.219 47.5893L105.004 41.7134ZM88.6589 64.7165C90.777 54.5806 99.8932 46.8789 110.849 46.8789V40.8789C97.0325 40.8789 85.4808 50.5923 82.7858 63.4893L88.6589 64.7165ZM110.849 46.8789C117.492 46.8789 123.74 49.7393 127.977 54.6227L132.509 50.6907C127.12 44.479 119.212 40.8789 110.849 40.8789V46.8789Z" fill="#0068E5" mask="url(#path-3-inside-1)"/>
<path d="M10.9297 128.398H12.7813C12.7656 126.902 11.5742 125.891 9.71484 125.891C7.88672 125.891 6.57031 126.887 6.58203 128.375C6.57813 129.59 7.42969 130.273 8.8125 130.59L9.64844 130.785C10.5273 130.988 10.9219 131.227 10.9297 131.676C10.9219 132.164 10.4648 132.504 9.6875 132.504C8.83203 132.504 8.26953 132.105 8.22656 131.336H6.375C6.39844 133.207 7.69922 134.102 9.71094 134.102C11.7031 134.102 12.8828 133.199 12.8906 131.68C12.8828 130.402 12.0195 129.621 10.4414 129.273L9.75391 129.117C9.02734 128.961 8.56641 128.719 8.58203 128.242C8.58594 127.805 8.96094 127.488 9.71094 127.488C10.4648 127.488 10.8789 127.828 10.9297 128.398ZM25.857 126V130.992C25.857 131.824 25.2672 132.422 24.4039 132.422C23.5367 132.422 22.9508 131.824 22.9508 130.992V126H21.0172V131.16C21.0172 132.949 22.3687 134.102 24.4039 134.102C26.4234 134.102 27.7867 132.949 27.7867 131.16V126H25.857ZM36.1486 134H38.0822V131.516H39.3947C41.2268 131.516 42.3713 130.43 42.3713 128.77C42.3713 127.125 41.2502 126 39.4533 126H36.1486V134ZM38.0822 129.992V127.559H39.0354C39.9025 127.559 40.3674 128.027 40.3674 128.77C40.3674 129.508 39.9025 129.992 39.0354 129.992H38.0822ZM50.4744 134H56.0525V132.43H52.408V130.785H55.7674V129.211H52.408V127.57H56.0525V126H50.4744V134ZM64.4135 134H66.3471V131.262H67.3393L68.8002 134H70.9096L69.2494 130.953C70.1283 130.555 70.6361 129.77 70.6361 128.664C70.6361 127.02 69.515 126 67.7182 126H64.4135V134ZM66.3471 129.738V127.559H67.3002C68.1674 127.559 68.6322 127.922 68.6322 128.664C68.6322 129.406 68.1674 129.738 67.3002 129.738H66.3471ZM84.0967 128.613H86.0537C85.8584 127.02 84.4365 125.891 82.585 125.891C80.4482 125.891 78.7607 127.395 78.7607 130.012C78.7607 132.543 80.3154 134.109 82.6084 134.109C84.667 134.109 86.1396 132.832 86.1396 130.684V129.625H82.6904V131.035H84.2764C84.2568 131.879 83.6709 132.414 82.624 132.414C81.4248 132.414 80.7334 131.527 80.7334 129.988C80.7334 128.461 81.4639 127.586 82.624 127.586C83.3975 127.586 83.9248 127.965 84.0967 128.613ZM101.98 130C101.98 127.355 100.308 125.891 98.1598 125.891C96.0035 125.891 94.3434 127.355 94.3434 130C94.3434 132.633 96.0035 134.109 98.1598 134.109C100.308 134.109 101.98 132.645 101.98 130ZM100.004 130C100.004 131.566 99.316 132.414 98.1598 132.414C97.0074 132.414 96.316 131.566 96.316 130C96.316 128.434 97.0074 127.586 98.1598 127.586C99.316 127.586 100.004 128.434 100.004 130ZM117.81 130C117.81 127.355 116.138 125.891 113.989 125.891C111.833 125.891 110.173 127.355 110.173 130C110.173 132.633 111.833 134.109 113.989 134.109C116.138 134.109 117.81 132.645 117.81 130ZM115.833 130C115.833 131.566 115.146 132.414 113.989 132.414C112.837 132.414 112.146 131.566 112.146 130C112.146 128.434 112.837 127.586 113.989 127.586C115.146 127.586 115.833 128.434 115.833 130ZM129.046 134C131.483 134 132.995 132.496 132.995 129.996C132.995 127.5 131.483 126 129.042 126H126.089V134H129.046ZM128.022 132.352V127.648H128.944C130.319 127.648 131.057 128.273 131.057 129.996C131.057 131.727 130.319 132.352 128.971 132.352H128.022ZM145.598 128.398H147.45C147.434 126.902 146.243 125.891 144.383 125.891C142.555 125.891 141.239 126.887 141.25 128.375C141.246 129.59 142.098 130.273 143.481 130.59L144.317 130.785C145.196 130.988 145.59 131.227 145.598 131.676C145.59 132.164 145.133 132.504 144.356 132.504C143.5 132.504 142.938 132.105 142.895 131.336H141.043C141.067 133.207 142.368 134.102 144.379 134.102C146.371 134.102 147.551 133.199 147.559 131.68C147.551 130.402 146.688 129.621 145.11 129.273L144.422 129.117C143.696 128.961 143.235 128.719 143.25 128.242C143.254 127.805 143.629 127.488 144.379 127.488C145.133 127.488 145.547 127.828 145.598 128.398Z" fill="#EE1616"/>
<path d="M149 80.6753L114.955 80.6051V68.8077L149 68.878V80.6753Z" fill="#0068E5"/>
<mask id="mask0" mask-type="alpha" maskUnits="userSpaceOnUse" x="187" y="0" width="151" height="151">
<path d="M338 75.5C338 117.198 304.198 151 262.5 151C220.803 151 187 117.198 187 75.5C187 33.8025 220.803 0 262.5 0C304.198 0 338 33.8025 338 75.5Z" fill="#C4C4C4"/>
</mask>
<g mask="url(#mask0)">
<path d="M216.477 0H241.112V24.6344H216.477V0Z" fill="#C4C4C4"/>
<path d="M249.323 0H273.958V24.6344H249.323V0Z" fill="#EE1616"/>
<path d="M282.625 0H307.26V24.6344H282.625V0Z" fill="#C4C4C4"/>
<path d="M185 31.4773H209.634V56.5679H185V31.4773Z" fill="#7A7A7A"/>
<path d="M216.934 31.4773H242.024V56.5679H216.934V31.4773Z" fill="#C4C4C4"/>
<path d="M250.236 31.4773H274.87V56.5679H250.236V31.4773Z" fill="#C4C4C4"/>
<path d="M283.082 31.4773H308.172V56.5679H283.082V31.4773Z" fill="#C4C4C4"/>
<path d="M316.384 31.4773H341.018V56.5679H316.384V31.4773Z" fill="#7A7A7A"/>
<path d="M185 63.8671H209.634V88.5015H185V63.8671Z" fill="#7A7A7A"/>
<path d="M216.934 63.8671H242.024V88.5015H216.934V63.8671Z" fill="#C4C4C4"/>
<path d="M250.236 63.8671H274.87V88.5015H250.236V63.8671Z" fill="#0068E5"/>
<path d="M283.082 63.8671H308.172V88.5015H283.082V63.8671Z" fill="#0068E5"/>
<path d="M316.384 63.8671H341.018V88.5015H316.384V63.8671Z" fill="#7A7A7A"/>
<path d="M185 94.432H209.634V119.523H185V94.432Z" fill="#7A7A7A"/>
<path d="M216.934 94.432H242.024V119.523H216.934V94.432Z" fill="#C4C4C4"/>
<path d="M250.236 94.432H274.87V119.523H250.236V94.432Z" fill="#EE1616"/>
<path d="M283.082 94.432H308.172V119.523H283.082V94.432Z" fill="#C4C4C4"/>
<path d="M316.384 94.432H341.018V119.523H316.384V94.432Z" fill="#7A7A7A"/>
<path d="M216.934 126.366H242.024V151H216.934V126.366Z" fill="#C4C4C4"/>
<path d="M250.236 126.366H274.87V151H250.236V126.366Z" fill="#C4C4C4"/>
<path d="M283.082 126.366H308.172V151H283.082V126.366Z" fill="#EE1616"/>
</g>
</svg>
