<svg width="106" height="25" viewBox="0 0 106 25" fill="none" xmlns="http://www.w3.org/2000/svg">
<path d="M12.1336 0.000976562V8.43629H4.44778V0.000976562H0.798828V20.1369H4.44778V11.9755H12.1336V20.1369H15.7826V0.000976562H12.1336Z" fill="#33475B"/>
<path d="M27.4606 13.6279C27.4606 14.4349 27.1426 15.2089 26.5765 15.7795C26.0103 16.3501 25.2425 16.6707 24.4419 16.6707C23.6413 16.6707 22.8734 16.3501 22.3073 15.7795C21.7412 15.2089 21.4231 14.4349 21.4231 13.6279V5.00342H17.9619V13.6279C17.9619 15.3585 18.644 17.0182 19.858 18.2419C21.0721 19.4656 22.7187 20.1531 24.4356 20.1531C26.1526 20.1531 27.7992 19.4656 29.0132 18.2419C30.2273 17.0182 30.9094 15.3585 30.9094 13.6279V5.00342H27.4606V13.6279Z" fill="#33475B"/>
<path d="M53.1059 5.89182C53.1059 4.12403 54.2662 3.56359 55.5374 3.56359C56.5618 3.56359 57.9152 4.34928 58.8002 5.30255L61.0671 2.61032C59.9354 1.06778 57.6399 0.000976562 55.7609 0.000976562C52.0064 0.000976562 49.2907 2.21748 49.2907 5.89182C49.2907 12.7089 57.5576 10.5465 57.5576 14.3614C57.5576 15.5381 56.4241 16.5779 55.1262 16.5779C53.0791 16.5779 52.4158 15.5687 51.4754 14.5019L48.96 17.1383C50.569 19.1295 52.5535 20.1405 54.9313 20.1405C58.498 20.1405 61.3675 17.897 61.3675 14.3902C61.3675 6.82167 53.1006 9.17332 53.1006 5.89182" fill="#33475B"/>
<path d="M104.248 16.9204C102.203 16.9204 101.622 16.0284 101.622 14.6625V8.61664H104.801V5.55319H101.622V1.51123L98.1123 3.09882V15.4139C98.1123 18.5639 100.268 20.1514 103.225 20.1514C103.689 20.16 104.153 20.1225 104.609 20.0397L105.466 16.8627C105.079 16.8898 104.636 16.9168 104.248 16.9168" fill="#33475B"/>
<path d="M40.6355 5.1042C38.9209 5.1042 37.7249 5.60516 36.5682 6.74945V0.121582H33.1016V12.406C33.1016 17.0048 36.4001 20.1548 40.1063 20.1548C44.2183 20.1548 47.835 16.949 47.835 12.6313C47.835 8.36768 44.5061 5.106 40.6355 5.106V5.1042ZM40.614 16.639C39.8361 16.639 39.0756 16.4065 38.4288 15.9709C37.782 15.5353 37.2779 14.9161 36.9802 14.1917C36.6825 13.4673 36.6046 12.6701 36.7564 11.9011C36.9081 11.1321 37.2827 10.4257 37.8328 9.87123C38.3829 9.31679 39.0837 8.93921 39.8467 8.78624C40.6096 8.63327 41.4005 8.71178 42.1192 9.01184C42.8379 9.3119 43.4522 9.82004 43.8844 10.472C44.3165 11.1239 44.5472 11.8904 44.5472 12.6745C44.5472 13.726 44.1328 14.7344 43.3952 15.4778C42.6576 16.2213 41.6572 16.639 40.614 16.639Z" fill="#33475B"/>
<path d="M78.2764 12.4478C78.2764 8.12292 74.6668 4.92432 70.5477 4.92432C66.8415 4.92432 63.543 8.07427 63.543 12.673V24.9647H67.0096V18.3278C68.1645 19.4703 69.3623 19.9731 71.0751 19.9731C74.9457 19.9731 78.2746 16.7132 78.2746 12.4478H78.2764ZM74.994 12.4045C74.994 13.1886 74.7633 13.9551 74.3311 14.6071C73.8989 15.259 73.2846 15.7672 72.5659 16.0672C71.8472 16.3673 71.0564 16.4458 70.2934 16.2928C69.5305 16.1399 68.8296 15.7623 68.2796 15.2078C67.7295 14.6534 67.3549 13.947 67.2031 13.178C67.0514 12.4089 67.1293 11.6118 67.427 10.8874C67.7247 10.163 68.2288 9.54383 68.8756 9.10821C69.5224 8.67259 70.2829 8.44008 71.0608 8.44008C72.1039 8.44008 73.1044 8.85776 73.842 9.60124C74.5796 10.3447 74.994 11.3531 74.994 12.4045Z" fill="#33475B"/>
</svg>
